<svg xmlns="http://www.w3.org/2000/svg" xmlns:xlink="http://www.w3.org/1999/xlink" width="80" zoomAndPan="magnify" viewBox="0 0 60 30.000001" height="40" preserveAspectRatio="xMidYMid meet" version="1.0"><defs><g/><clipPath id="9666648407"><path d="M 0.96875 0 L 59.03125 0 L 59.03125 29.03125 L 0.96875 29.03125 Z M 0.96875 0 " clip-rule="nonzero"/></clipPath></defs><g clip-path="url(#9666648407)"><path fill="#ffffff" d="M 0.96875 0 L 59.03125 0 L 59.03125 29.03125 L 0.96875 29.03125 Z M 0.96875 0 " fill-opacity="1" fill-rule="nonzero"/><path fill="#ffffff" d="M 0.96875 0 L 59.03125 0 L 59.03125 29.03125 L 0.96875 29.03125 Z M 0.96875 0 " fill-opacity="1" fill-rule="nonzero"/></g><g fill="#000000" fill-opacity="1"><g transform="translate(11.498865, 12.870908)"><g><path d="M 0.234375 -2.6875 L 0.21875 -3.75 L 1.5625 -3.765625 L 1.46875 -5.046875 L 2.53125 -5.140625 L 2.625 -3.78125 L 3.734375 -3.796875 C 3.691406 -4.335938 3.644531 -4.882812 3.59375 -5.4375 L 4.671875 -5.625 C 4.753906 -5.019531 4.816406 -4.414062 4.859375 -3.8125 L 6.40625 -3.828125 L 6.40625 -2.765625 L 4.890625 -2.75 C 4.890625 -2.5 4.882812 -2.253906 4.875 -2.015625 C 4.863281 -1.691406 4.835938 -1.375 4.796875 -1.0625 C 4.753906 -0.75 4.703125 -0.4375 4.640625 -0.125 C 4.578125 0.175781 4.488281 0.472656 4.375 0.765625 C 4 0.722656 3.628906 0.675781 3.265625 0.625 C 3.398438 0.195312 3.507812 -0.238281 3.59375 -0.6875 C 3.6875 -1.132812 3.742188 -1.59375 3.765625 -2.0625 C 3.773438 -2.269531 3.773438 -2.492188 3.765625 -2.734375 L 2.6875 -2.71875 L 2.796875 -0.84375 L 1.765625 -0.71875 L 1.640625 -2.703125 Z M 0.234375 -2.6875 "/></g></g></g><g fill="#000000" fill-opacity="1"><g transform="translate(18.091469, 12.870908)"><g><path d="M 0.3125 -4 L 6.09375 -4.75 L 6.390625 -3.9375 L 4.234375 -1.328125 C 4.578125 -1.078125 4.9375 -0.785156 5.3125 -0.453125 L 4.46875 0.421875 C 4.082031 0.0546875 3.6875 -0.265625 3.28125 -0.546875 C 2.757812 -0.910156 2.207031 -1.273438 1.625 -1.640625 L 2.3125 -2.59375 C 2.664062 -2.375 2.992188 -2.171875 3.296875 -1.984375 L 4.390625 -3.359375 L 0.40625 -2.734375 Z M 0.3125 -4 "/></g></g></g><g fill="#000000" fill-opacity="1"><g transform="translate(24.684074, 12.870908)"><g><path d="M 0.46875 -3.015625 L 5.015625 -3.125 L 4.984375 -1.90625 L 0.453125 -1.828125 Z M 0.46875 -3.015625 "/></g></g></g><g fill="#000000" fill-opacity="1"><g transform="translate(30.12426, 12.870908)"><g><path d="M 0.515625 -4.703125 L 5.21875 -4.75 L 5.328125 -4.046875 C 5.265625 -3.503906 5.15625 -2.972656 5 -2.453125 C 4.84375 -1.941406 4.660156 -1.4375 4.453125 -0.9375 C 4.242188 -0.445312 4.019531 0.0351562 3.78125 0.515625 L 2.59375 0.15625 C 2.957031 -0.414062 3.253906 -1.019531 3.484375 -1.65625 C 3.722656 -2.300781 3.898438 -2.957031 4.015625 -3.625 L 0.515625 -3.578125 Z M 0.515625 -4.703125 "/></g></g></g><g fill="#000000" fill-opacity="1"><g transform="translate(36.150312, 12.870908)"><g><path d="M 1 -3.390625 L 5.25 -3.484375 L 5.234375 -2.53125 L 3.5625 -2.5 L 3.5625 -0.859375 L 5.640625 -0.90625 L 5.625 0.046875 L 0.609375 0.109375 L 0.625 -0.8125 L 2.5625 -0.84375 L 2.5625 -2.484375 L 0.984375 -2.453125 Z M 1 -3.390625 "/></g></g></g><g fill="#000000" fill-opacity="1"><g transform="translate(42.279374, 12.870908)"><g><path d="M 0.90625 -4.71875 L 4.6875 -4.90625 L 5.203125 -4.140625 C 4.796875 -3.546875 4.367188 -2.972656 3.921875 -2.421875 L 5.75 -1.109375 L 4.984375 -0.109375 L 3.21875 -1.640625 C 3.195312 -1.609375 3.171875 -1.582031 3.140625 -1.5625 C 2.503906 -0.925781 1.863281 -0.300781 1.21875 0.3125 L 0.453125 -0.640625 C 1.078125 -1.128906 1.679688 -1.65625 2.265625 -2.21875 C 2.773438 -2.695312 3.253906 -3.210938 3.703125 -3.765625 L 0.90625 -3.640625 Z M 0.90625 -4.71875 "/></g></g></g><g fill="#000000" fill-opacity="1"><g transform="translate(26.325524, 17.823158)"><g><path d="M 2.078125 -2.84375 L 2.609375 -3.0625 C 2.703125 -2.863281 2.832031 -2.65625 3 -2.4375 C 3.175781 -2.21875 3.359375 -2.023438 3.546875 -1.859375 C 3.472656 -1.804688 3.390625 -1.734375 3.296875 -1.640625 C 3.210938 -1.546875 3.144531 -1.460938 3.09375 -1.390625 C 2.6875 -1.835938 2.347656 -2.320312 2.078125 -2.84375 Z M 1.03125 -3.0625 L 1.65625 -2.890625 C 1.539062 -2.609375 1.394531 -2.332031 1.21875 -2.0625 C 1.039062 -1.789062 0.859375 -1.570312 0.671875 -1.40625 C 0.609375 -1.457031 0.523438 -1.523438 0.421875 -1.609375 C 0.316406 -1.691406 0.222656 -1.753906 0.140625 -1.796875 C 0.328125 -1.941406 0.5 -2.128906 0.65625 -2.359375 C 0.820312 -2.585938 0.945312 -2.820312 1.03125 -3.0625 Z M 2.15625 -0.984375 L 2.671875 -1.21875 C 2.828125 -1.019531 2.976562 -0.800781 3.125 -0.5625 C 3.28125 -0.320312 3.40625 -0.109375 3.5 0.078125 L 2.9375 0.359375 C 2.90625 0.296875 2.859375 0.203125 2.796875 0.078125 C 2.046875 0.128906 1.242188 0.179688 0.390625 0.234375 L 0.328125 -0.328125 C 0.359375 -0.335938 0.429688 -0.34375 0.546875 -0.34375 C 0.671875 -0.34375 0.769531 -0.347656 0.84375 -0.359375 C 1.09375 -0.816406 1.289062 -1.296875 1.4375 -1.796875 L 2.078125 -1.640625 C 1.898438 -1.210938 1.691406 -0.789062 1.453125 -0.375 C 1.585938 -0.382812 1.785156 -0.394531 2.046875 -0.40625 C 2.316406 -0.425781 2.472656 -0.4375 2.515625 -0.4375 C 2.367188 -0.664062 2.25 -0.847656 2.15625 -0.984375 Z M 2.15625 -0.984375 "/></g></g><g transform="translate(29.999998, 17.823158)"><g><path d="M 1.359375 -1.171875 L 1.359375 -0.46875 C 1.546875 -0.5 1.753906 -0.53125 1.984375 -0.5625 L 2.015625 -0.09375 C 1.816406 -0.0507812 1.25 0.0625 0.3125 0.25 L 0.171875 -0.296875 C 0.296875 -0.304688 0.515625 -0.332031 0.828125 -0.375 L 0.828125 -1.171875 L 0.328125 -1.171875 L 0.328125 -1.671875 L 1.890625 -1.671875 L 1.890625 -1.171875 Z M 3.5 -2.03125 L 2.546875 -2.03125 C 2.578125 -1.519531 2.632812 -1.085938 2.71875 -0.734375 C 2.8125 -0.390625 2.910156 -0.21875 3.015625 -0.21875 C 3.085938 -0.21875 3.128906 -0.429688 3.140625 -0.859375 C 3.285156 -0.710938 3.441406 -0.609375 3.609375 -0.546875 C 3.566406 -0.191406 3.5 0.0390625 3.40625 0.15625 C 3.320312 0.28125 3.175781 0.34375 2.96875 0.34375 C 2.414062 0.34375 2.085938 -0.445312 1.984375 -2.03125 L 0.171875 -2.03125 L 0.171875 -2.546875 L 1.953125 -2.546875 C 1.953125 -2.796875 1.953125 -2.988281 1.953125 -3.125 L 2.515625 -3.125 C 2.515625 -2.957031 2.515625 -2.765625 2.515625 -2.546875 L 2.984375 -2.546875 C 2.890625 -2.648438 2.769531 -2.753906 2.625 -2.859375 L 2.984375 -3.15625 C 3.191406 -3.007812 3.34375 -2.878906 3.4375 -2.765625 L 3.1875 -2.546875 L 3.5 -2.546875 Z M 3.5 -2.03125 "/></g></g></g></svg>